# Blender 3.6.1
# www.blender.org
mtllib wooden_crate.mtl
o Wooden_Crate_001
v -0.500000 -0.500000 0.500000
v -0.500000 0.500000 0.500000
v -0.500000 -0.500000 -0.500000
v -0.500000 0.500000 -0.500000
v 0.500000 -0.500000 0.500000
v 0.500000 0.500000 0.500000
v 0.500000 -0.500000 -0.500000
v 0.500000 0.500000 -0.500000
v -0.500000 -0.399474 0.399474
v -0.500000 0.399474 0.399474
v -0.500000 0.399474 -0.399474
v -0.500000 -0.399474 -0.399474
v -0.399474 -0.399474 -0.500000
v -0.399474 0.399474 -0.500000
v 0.399474 0.399474 -0.500000
v 0.399474 -0.399474 -0.500000
v 0.500000 -0.399474 -0.399474
v 0.500000 0.399474 -0.399474
v 0.500000 0.399474 0.399474
v 0.500000 -0.399474 0.399474
v 0.399474 -0.399474 0.500000
v 0.399474 0.399474 0.500000
v -0.399474 0.399474 0.500000
v -0.399474 -0.399474 0.500000
v -0.399474 -0.500000 -0.399474
v 0.399474 -0.500000 -0.399474
v 0.399474 -0.500000 0.399474
v -0.399474 -0.500000 0.399474
v -0.290434 -0.500000 -0.500000
v 0.290434 -0.500000 -0.500000
v 0.290434 0.500000 -0.500000
v -0.290434 0.500000 -0.500000
v 0.290434 -0.500000 0.500000
v -0.290434 -0.500000 0.500000
v -0.290434 0.500000 0.500000
v 0.290434 0.500000 0.500000
v -0.290434 -0.399474 -0.500000
v 0.290434 -0.399474 -0.500000
v 0.290434 0.399474 -0.500000
v -0.290434 0.399474 -0.500000
v 0.290434 -0.399474 0.500000
v -0.290434 -0.399474 0.500000
v -0.290434 0.399474 0.500000
v 0.290434 0.399474 0.500000
v 0.290434 -0.500000 -0.399474
v -0.290434 -0.500000 -0.399474
v -0.290434 -0.500000 0.399474
v 0.290434 -0.500000 0.399474
v -0.500000 -0.500000 0.290434
v -0.500000 -0.500000 -0.290434
v -0.500000 0.500000 -0.290434
v -0.500000 0.500000 0.290434
v 0.500000 -0.500000 -0.290434
v 0.500000 -0.500000 0.290434
v 0.500000 0.500000 0.290434
v 0.500000 0.500000 -0.290434
v -0.500000 -0.399474 0.290434
v -0.500000 -0.399474 -0.290434
v -0.500000 0.399474 -0.290434
v -0.500000 0.399474 0.290434
v 0.500000 -0.399474 -0.290434
v 0.500000 -0.399474 0.290434
v 0.500000 0.399474 0.290434
v 0.500000 0.399474 -0.290434
v -0.399474 -0.500000 0.290434
v -0.399474 -0.500000 -0.290434
v 0.399474 -0.500000 0.290434
v 0.399474 -0.500000 -0.290434
v -0.500000 0.290434 0.500000
v -0.500000 -0.290434 0.500000
v -0.500000 -0.290434 -0.500000
v -0.500000 0.290434 -0.500000
v 0.500000 -0.290434 -0.500000
v 0.500000 0.290434 -0.500000
v 0.500000 -0.290434 0.500000
v 0.500000 0.290434 0.500000
v -0.500000 -0.290434 0.399474
v -0.500000 0.290434 0.399474
v -0.500000 -0.290434 -0.399474
v -0.500000 0.290434 -0.399474
v -0.399474 -0.290434 -0.500000
v -0.399474 0.290434 -0.500000
v 0.399474 -0.290434 -0.500000
v 0.399474 0.290434 -0.500000
v 0.500000 -0.290434 -0.399474
v 0.500000 0.290434 -0.399474
v 0.500000 -0.290434 0.399474
v 0.500000 0.290434 0.399474
v 0.399474 -0.290434 0.500000
v 0.399474 0.290434 0.500000
v -0.399474 -0.290434 0.500000
v -0.399474 0.290434 0.500000
v 0.109040 0.000000 0.480000
v 0.054520 -0.054520 0.480000
v 0.145217 -0.254257 0.480000
v -0.000000 -0.109040 0.480000
v 0.290434 0.399474 0.480000
v 0.000000 0.109040 0.480000
v -0.054520 0.054520 0.480000
v -0.109040 -0.000000 0.480000
v -0.226997 0.226997 0.480000
v -0.399474 0.399474 0.480000
v 0.290434 -0.399474 0.480000
v -0.254257 0.145217 0.480000
v -0.290434 -0.399474 0.480000
v 0.399474 0.290434 0.480000
v 0.226997 -0.226997 0.480000
v 0.399474 -0.290434 0.480000
v 0.254257 -0.145217 0.480000
v -0.399474 -0.290434 0.480000
v -0.145217 0.254257 0.480000
v -0.290434 0.399474 0.480000
v -0.399474 0.290434 0.480000
v 0.399474 -0.399474 0.480000
v 0.480000 0.109040 -0.000000
v 0.480000 0.054520 0.054520
v 0.480000 0.399474 0.290434
v 0.480000 0.254257 0.145217
v 0.480000 0.000000 -0.109040
v 0.480000 -0.054520 -0.054520
v 0.054520 0.054520 -0.480000
v 0.109040 0.000000 -0.480000
v 0.480000 -0.109040 0.000000
v 0.480000 -0.000000 0.109040
v -0.290434 0.399474 -0.480000
v -0.000000 0.109040 -0.480000
v -0.290434 -0.399474 -0.480000
v 0.290434 -0.399474 -0.480000
v 0.290434 0.399474 -0.480000
v 0.480000 -0.399474 -0.399474
v 0.480000 -0.226997 -0.226997
v 0.480000 -0.399474 -0.290434
v 0.480000 -0.399474 0.290434
v 0.480000 0.399474 -0.290434
v -0.480000 -0.399474 0.290434
v -0.480000 -0.399474 -0.290434
v -0.480000 0.399474 -0.290434
v -0.480000 0.399474 0.290434
v 0.399474 -0.290434 -0.480000
v 0.399474 0.290434 -0.480000
v 0.254257 0.145217 -0.480000
v 0.480000 0.226997 0.226997
v 0.480000 0.399474 0.399474
v 0.480000 -0.290434 -0.399474
v 0.480000 -0.145217 -0.254257
v 0.226997 0.226997 -0.480000
v -0.480000 -0.290434 0.399474
v -0.480000 0.290434 0.399474
v 0.480000 -0.254257 -0.145217
v -0.109040 0.000000 -0.480000
v 0.480000 0.290434 -0.399474
v -0.399474 -0.290434 -0.480000
v -0.399474 0.290434 -0.480000
v 0.480000 0.145217 0.254257
v 0.480000 -0.290434 0.399474
v 0.480000 0.290434 0.399474
v -0.480000 -0.290434 -0.399474
v -0.480000 0.290434 -0.399474
v -0.054520 -0.054520 -0.480000
v 0.399474 -0.399474 -0.480000
v -0.399474 -0.399474 -0.480000
v -0.399474 0.399474 -0.480000
v 0.399474 0.399474 -0.480000
v -0.399474 -0.399474 0.480000
v 0.399474 0.399474 0.480000
v -0.480000 -0.399474 -0.399474
v -0.480000 -0.399474 0.399474
v -0.480000 0.399474 0.399474
v -0.480000 0.399474 -0.399474
v 0.480000 -0.399474 0.399474
v 0.480000 0.399474 -0.399474
v -0.480000 0.254257 -0.145217
v -0.480000 0.226997 -0.226997
v -0.480000 0.145217 -0.254257
v 0.145217 0.254257 -0.480000
v -0.226997 -0.226997 -0.480000
v -0.145217 -0.254257 -0.480000
v -0.480000 0.109040 0.000000
v -0.480000 0.054520 -0.054520
v -0.480000 -0.000000 -0.109040
v -0.480000 -0.226997 0.226997
v -0.480000 -0.254257 0.145217
v -0.480000 -0.109040 -0.000000
v -0.480000 -0.054520 0.054520
v -0.480000 0.000000 0.109040
v -0.480000 -0.145217 0.254257
v 0.000000 -0.109040 -0.480000
v -0.254257 -0.145217 -0.480000
v 0.145217 -0.254257 0.460000
v -0.000000 -0.109040 0.460000
v 0.290434 0.399474 0.460000
v 0.000000 0.109040 0.460000
v 0.290434 -0.399474 0.460000
v -0.109040 -0.000000 0.460000
v -0.254257 0.145217 0.460000
v -0.290434 -0.399474 0.460000
v 0.109040 0.000000 0.460000
v 0.399474 0.290434 0.460000
v 0.399474 -0.290434 0.460000
v 0.254257 -0.145217 0.460000
v -0.399474 -0.290434 0.460000
v -0.145217 0.254257 0.460000
v -0.290434 0.399474 0.460000
v -0.399474 0.290434 0.460000
v 0.460000 0.399474 0.290434
v 0.460000 0.254257 0.145217
v -0.290434 0.399474 -0.460000
v -0.000000 0.109040 -0.460000
v -0.290434 -0.399474 -0.460000
v 0.290434 -0.399474 -0.460000
v 0.290434 0.399474 -0.460000
v 0.460000 -0.399474 -0.290434
v 0.460000 -0.399474 0.290434
v 0.460000 0.399474 -0.290434
v -0.460000 -0.399474 0.290434
v -0.460000 -0.399474 -0.290434
v -0.460000 0.399474 -0.290434
v -0.460000 0.399474 0.290434
v 0.399474 -0.290434 -0.460000
v 0.109040 0.000000 -0.460000
v 0.399474 0.290434 -0.460000
v 0.254257 0.145217 -0.460000
v 0.460000 -0.290434 -0.399474
v 0.460000 -0.145217 -0.254257
v -0.460000 -0.290434 0.399474
v -0.460000 0.290434 0.399474
v 0.460000 0.290434 -0.399474
v -0.399474 -0.290434 -0.460000
v -0.399474 0.290434 -0.460000
v 0.460000 0.145217 0.254257
v 0.460000 -0.000000 0.109040
v 0.460000 -0.254257 -0.145217
v 0.460000 -0.290434 0.399474
v 0.460000 0.290434 0.399474
v -0.460000 -0.290434 -0.399474
v -0.460000 0.290434 -0.399474
v 0.460000 0.109040 -0.000000
v 0.145217 0.254257 -0.460000
v -0.460000 0.254257 -0.145217
v -0.460000 0.145217 -0.254257
v -0.460000 0.109040 0.000000
v -0.460000 -0.000000 -0.109040
v -0.460000 -0.254257 0.145217
v -0.460000 -0.145217 0.254257
v -0.460000 0.000000 0.109040
v -0.460000 -0.109040 -0.000000
v -0.145217 -0.254257 -0.460000
v -0.254257 -0.145217 -0.460000
v -0.109040 0.000000 -0.460000
v 0.000000 -0.109040 -0.460000
v 0.460000 0.000000 -0.109040
v 0.460000 -0.109040 0.000000
v 0.399474 0.520000 -0.399474
v 0.500000 0.520000 -0.500000
v -0.500000 0.520000 -0.500000
v -0.399474 0.520000 -0.399474
v -0.500000 0.520000 0.500000
v -0.399474 0.520000 0.399474
v 0.500000 0.520000 0.500000
v 0.399474 0.520000 0.399474
v -0.290434 0.520000 -0.290434
v -0.290434 0.520000 0.290434
v 0.290434 0.520000 0.290434
v 0.290434 0.520000 -0.290434
v -0.290434 0.520000 0.500000
v 0.290434 0.520000 0.500000
v 0.290434 0.520000 0.399474
v -0.290434 0.520000 0.399474
v 0.290434 0.520000 -0.500000
v -0.290434 0.520000 -0.500000
v -0.290434 0.520000 -0.399474
v 0.290434 0.520000 -0.399474
v 0.399474 0.520000 0.290434
v 0.399474 0.520000 -0.290434
v 0.500000 0.520000 0.290434
v 0.500000 0.520000 -0.290434
v -0.500000 0.520000 -0.290434
v -0.500000 0.520000 0.290434
v -0.399474 0.520000 0.290434
v -0.399474 0.520000 -0.290434
v 0.290434 -0.470000 -0.290434
v 0.290434 -0.470000 0.290434
v -0.290434 -0.470000 0.290434
v -0.290434 -0.470000 -0.290434
v -0.290434 -0.470000 0.399474
v 0.290434 -0.470000 0.399474
v 0.290434 -0.470000 -0.399474
v -0.290434 -0.470000 -0.399474
v -0.399474 -0.470000 0.290434
v -0.399474 -0.470000 -0.290434
v 0.399474 -0.470000 0.290434
v 0.399474 -0.470000 -0.290434
v -0.399474 -0.470000 -0.399474
v 0.399474 -0.470000 -0.399474
v 0.399474 -0.470000 0.399474
v -0.399474 -0.470000 0.399474
vn -1.0000 -0.0000 -0.0000
vn -0.0000 -0.0000 1.0000
vn -0.0000 -0.0000 -1.0000
vn -0.0000 -1.0000 -0.0000
vn 1.0000 -0.0000 -0.0000
vn -0.0000 1.0000 -0.0000
vn 0.7071 0.7071 -0.0000
vn -0.0000 0.7071 -0.7071
vn -0.0000 0.7071 0.7071
vn -0.7071 0.7071 -0.0000
vn -0.7071 -0.7071 -0.0000
vn -0.0000 -0.7071 -0.7071
vn 0.7071 -0.7071 -0.0000
vn -0.0000 -0.7071 0.7071
vt 0.384183 0.228420
vt 0.384183 0.201186
vt 0.391677 0.201186
vt 0.391677 0.228420
vt 0.204606 0.201186
vt 0.204606 0.253528
vt 0.179498 0.228420
vt 0.179498 0.201186
vt 0.049780 0.056104
vt 0.049780 0.003761
vt 0.074888 0.028869
vt 0.074888 0.056104
vt 0.661333 0.201225
vt 0.661333 0.253568
vt 0.636225 0.228460
vt 0.636225 0.201225
vt 0.127371 0.253528
vt 0.127371 0.201186
vt 0.152479 0.201186
vt 0.152479 0.228420
vt 0.127371 0.056104
vt 0.127371 0.003761
vt 0.152479 0.028870
vt 0.152479 0.056104
vt 0.507570 0.056104
vt 0.507570 0.003761
vt 0.532678 0.028870
vt 0.532678 0.056104
vt 0.281841 0.253528
vt 0.281841 0.201186
vt 0.306949 0.201186
vt 0.306949 0.228420
vt 0.281841 0.056104
vt 0.281841 0.003761
vt 0.306949 0.028870
vt 0.306949 0.056104
vt 0.359075 0.056104
vt 0.359075 0.003761
vt 0.384183 0.028870
vt 0.384183 0.056104
vt 0.049780 0.253528
vt 0.049780 0.201186
vt 0.074888 0.201186
vt 0.074888 0.228420
vt 0.433400 0.056104
vt 0.433400 0.003761
vt 0.458508 0.028870
vt 0.458508 0.056104
vt 0.433400 0.253528
vt 0.433400 0.201186
vt 0.458508 0.201186
vt 0.458508 0.228420
vt 0.359075 0.253528
vt 0.359075 0.201186
vt 0.743395 0.253568
vt 0.743395 0.201225
vt 0.768503 0.201225
vt 0.768503 0.228460
vt 0.581629 0.003761
vt 0.581629 0.056104
vt 0.556521 0.056104
vt 0.556521 0.028869
vt 0.408292 0.056104
vt 0.408292 0.028870
vt 0.482462 0.056104
vt 0.482462 0.028870
vt 0.408292 0.228420
vt 0.408291 0.201186
vt 0.743395 0.056144
vt 0.743395 0.003801
vt 0.768503 0.028909
vt 0.768503 0.056144
vt 0.507570 0.201186
vt 0.507570 0.253528
vt 0.482462 0.228420
vt 0.482462 0.201186
vt 0.581629 0.201185
vt 0.581629 0.253528
vt 0.556521 0.228420
vt 0.556521 0.201186
vt 0.661333 0.003801
vt 0.661333 0.056144
vt 0.636225 0.056144
vt 0.636225 0.028909
vt 0.001514 0.198472
vt 0.001515 0.053670
vt 0.006511 0.053670
vt 0.006509 0.198473
vt 0.532678 0.201186
vt 0.540171 0.056104
vt 0.540171 0.201186
vt 0.540171 0.028870
vt 0.001507 0.749286
vt 0.001508 0.697044
vt 0.006503 0.697044
vt 0.006503 0.749286
vt 0.586932 0.253531
vt 0.586932 0.201188
vt 0.612040 0.201188
vt 0.612040 0.228423
vt 0.737946 0.003841
vt 0.737946 0.056183
vt 0.712837 0.056183
vt 0.712837 0.028949
vt 0.686441 0.201225
vt 0.686441 0.228460
vt 0.333967 0.056104
vt 0.333967 0.028870
vt 0.333967 0.228420
vt 0.333967 0.201186
vt 0.586932 0.056107
vt 0.586932 0.003764
vt 0.612040 0.028872
vt 0.612040 0.056107
vt 0.686441 0.028909
vt 0.686441 0.056144
vt 0.737946 0.201265
vt 0.737946 0.253607
vt 0.712837 0.228499
vt 0.712837 0.201265
vt 0.001513 0.302956
vt 0.001513 0.250714
vt 0.006508 0.250714
vt 0.006508 0.302956
vt 0.466001 0.056104
vt 0.466001 0.201186
vt 0.204606 0.003761
vt 0.204606 0.056104
vt 0.179498 0.056104
vt 0.179498 0.028870
vt 0.229714 0.201186
vt 0.229714 0.228420
vt 0.256733 0.056104
vt 0.256733 0.028870
vt 0.256733 0.228420
vt 0.256733 0.201186
vt 0.102263 0.056104
vt 0.102263 0.028870
vt 0.102263 0.228420
vt 0.102263 0.201186
vt 0.024672 0.056104
vt 0.024672 0.028869
vt 0.024672 0.228420
vt 0.024672 0.201186
vt 0.229714 0.028870
vt 0.229714 0.056104
vt 0.001510 0.552242
vt 0.006505 0.552242
vt 0.391677 0.056104
vt 0.001504 0.998571
vt 0.001505 0.946330
vt 0.006500 0.946330
vt 0.006500 0.998571
vt 0.001507 0.801527
vt 0.006502 0.801527
vt 0.001511 0.447758
vt 0.006506 0.447758
vt 0.628732 0.228460
vt 0.628732 0.201225
vt 0.097268 0.056104
vt 0.097268 0.028870
vt 0.328972 0.201186
vt 0.328972 0.056104
vt 0.001516 0.001429
vt 0.006511 0.001429
vt 0.532678 0.228420
vt 0.540171 0.228420
vt 0.628732 0.056144
vt 0.628732 0.028909
vt 0.001510 0.500000
vt 0.006506 0.500000
vt 0.097268 0.228420
vt 0.097268 0.201186
vt 0.403296 0.201186
vt 0.403296 0.056104
vt 0.328972 0.228420
vt 0.079884 0.201186
vt 0.079884 0.228420
vt 0.079884 0.056104
vt 0.551526 0.228420
vt 0.551526 0.201186
vt 0.328972 0.028870
vt 0.157475 0.028870
vt 0.157475 0.056104
vt 0.157475 0.201186
vt 0.551526 0.056104
vt 0.551526 0.028869
vt 0.251737 0.201186
vt 0.251737 0.056104
vt 0.773499 0.028909
vt 0.773499 0.056144
vt 0.251737 0.028870
vt 0.707842 0.201265
vt 0.707842 0.056183
vt 0.773499 0.201225
vt 0.773499 0.228460
vt 0.019677 0.201186
vt 0.019677 0.056104
vt 0.251737 0.228420
vt 0.707842 0.228499
vt 0.157475 0.228420
vt 0.234709 0.056104
vt 0.234709 0.201186
vt 0.707842 0.028949
vt 0.234709 0.028870
vt 0.691437 0.056144
vt 0.691437 0.201225
vt 0.019677 0.028869
vt 0.311944 0.028870
vt 0.311944 0.056104
vt 0.477466 0.228420
vt 0.477466 0.201186
vt 0.477466 0.056104
vt 0.019677 0.228420
vt 0.174503 0.056104
vt 0.174503 0.028870
vt 0.477466 0.028870
vt 0.174503 0.201186
vt 0.691437 0.028909
vt 0.403296 0.228420
vt 0.234709 0.228420
vt 0.174503 0.228420
vt 0.691437 0.228460
vt 0.617036 0.056107
vt 0.617036 0.201188
vt 0.403296 0.028870
vt 0.617036 0.028872
vt 0.311944 0.201186
vt 0.311944 0.228420
vt 0.617036 0.228423
vt 0.079884 0.028869
vt 0.279536 0.279666
vt 0.279536 0.382254
vt 0.241020 0.382254
vt 0.241020 0.279666
vt 0.260278 0.260409
vt 0.442088 0.279691
vt 0.442088 0.382279
vt 0.403573 0.382279
vt 0.403573 0.279691
vt 0.422831 0.260434
vt 0.019721 0.523361
vt 0.019721 0.472067
vt 0.038979 0.481696
vt 0.038979 0.542619
vt 0.169323 0.330963
vt 0.169323 0.382257
vt 0.150065 0.382257
vt 0.150065 0.321334
vt 0.113291 0.330963
vt 0.113291 0.382257
vt 0.094034 0.382257
vt 0.094034 0.321334
vt 0.130807 0.472067
vt 0.150065 0.481696
vt 0.150065 0.542619
vt 0.130807 0.523361
vt 0.205608 0.481696
vt 0.205608 0.420773
vt 0.224866 0.420773
vt 0.224866 0.472067
vt 0.038979 0.420773
vt 0.058236 0.420773
vt 0.058236 0.472067
vt 0.094034 0.481696
vt 0.094034 0.420773
vt 0.113291 0.420773
vt 0.113291 0.472067
vt 0.130807 0.382257
vt 0.130807 0.330963
vt 0.294499 0.524093
vt 0.294499 0.421504
vt 0.333015 0.421504
vt 0.333015 0.524093
vt 0.313757 0.543350
vt 0.348578 0.524093
vt 0.348578 0.421504
vt 0.387093 0.421504
vt 0.387093 0.524093
vt 0.367836 0.543350
vt 0.074776 0.472067
vt 0.074776 0.420773
vt 0.038979 0.382257
vt 0.019721 0.382257
vt 0.019721 0.330963
vt 0.038978 0.321334
vt 0.224866 0.330963
vt 0.224866 0.382257
vt 0.205608 0.382257
vt 0.205608 0.321334
vt 0.169323 0.279669
vt 0.150065 0.260412
vt 0.074776 0.382257
vt 0.074776 0.330963
vt 0.074776 0.279669
vt 0.094034 0.260412
vt 0.402168 0.524093
vt 0.402168 0.421504
vt 0.440683 0.421504
vt 0.440683 0.524093
vt 0.421426 0.543350
vt 0.295138 0.279697
vt 0.295138 0.382286
vt 0.290143 0.382286
vt 0.290143 0.279697
vt 0.169323 0.523361
vt 0.169323 0.472067
vt 0.174318 0.472067
vt 0.174318 0.523361
vt 0.058236 0.330963
vt 0.058236 0.382257
vt 0.113291 0.279669
vt 0.019721 0.420773
vt 0.014726 0.472067
vt 0.014726 0.420773
vt 0.387938 0.279697
vt 0.387938 0.382286
vt 0.349422 0.382286
vt 0.349422 0.279697
vt 0.368680 0.260440
vt 0.702847 0.201265
vt 0.702847 0.056183
vt 0.186351 0.420773
vt 0.186351 0.472067
vt 0.181355 0.472067
vt 0.181355 0.420773
vt 0.150065 0.420773
vt 0.169323 0.420773
vt 0.130807 0.420773
vt 0.343583 0.524093
vt 0.343583 0.421504
vt 0.130807 0.279669
vt 0.696432 0.056144
vt 0.696432 0.201225
vt 0.240268 0.523356
vt 0.240268 0.420768
vt 0.278783 0.420768
vt 0.278783 0.523356
vt 0.259526 0.542613
vt 0.186351 0.330963
vt 0.186351 0.279669
vt 0.205608 0.260412
vt 0.058236 0.523361
vt 0.344427 0.382286
vt 0.344427 0.279697
vt 0.333654 0.279697
vt 0.333654 0.382286
vt 0.314396 0.260440
vt 0.622031 0.056107
vt 0.622031 0.201188
vt 0.284531 0.279666
vt 0.284531 0.382254
vt 0.323977 0.201186
vt 0.323977 0.056104
vt 0.186351 0.382257
vt 0.224866 0.279669
vt 0.283779 0.420768
vt 0.283779 0.523356
vt 0.186351 0.523361
vt 0.205608 0.542619
vt 0.224866 0.523361
vt 0.445679 0.421504
vt 0.445679 0.524093
vt 0.074776 0.523361
vt 0.094034 0.542619
vt 0.113291 0.523361
vt 0.019721 0.279669
vt 0.038978 0.260412
vt 0.174318 0.279669
vt 0.174318 0.330963
vt 0.338649 0.279697
vt 0.338649 0.382286
vt 0.546530 0.201186
vt 0.546530 0.056104
vt 0.058236 0.279669
vt 0.317674 0.627786
vt 0.172593 0.627786
vt 0.208863 0.591516
vt 0.245133 0.555245
vt 0.872843 0.390242
vt 0.872843 0.535323
vt 0.800302 0.462782
vt 0.836573 0.426512
vt 0.324487 0.634248
vt 0.469569 0.634248
vt 0.433299 0.670519
vt 0.397028 0.706789
vt 0.872800 0.695172
vt 0.872800 0.840253
vt 0.800260 0.767712
vt 0.836530 0.731442
vt 0.477319 0.634244
vt 0.622400 0.634244
vt 0.586130 0.670514
vt 0.549860 0.706785
vt 0.880959 0.687569
vt 0.880959 0.542487
vt 0.953500 0.615028
vt 0.917229 0.651298
vt 0.020696 0.627797
vt 0.056967 0.591526
vt 0.093237 0.555256
vt 0.165778 0.627797
vt 0.469587 0.627785
vt 0.324505 0.627785
vt 0.360776 0.591514
vt 0.397046 0.555244
vt 0.881010 0.382846
vt 0.881010 0.237764
vt 0.953551 0.310305
vt 0.917281 0.346576
vt 0.872851 0.237772
vt 0.872850 0.382853
vt 0.800310 0.310312
vt 0.836580 0.274042
vt 0.020708 0.634219
vt 0.165789 0.634219
vt 0.129519 0.670489
vt 0.093249 0.706760
vt 0.172557 0.634217
vt 0.317639 0.634217
vt 0.281368 0.670487
vt 0.245098 0.706757
vt 0.880995 0.535292
vt 0.880995 0.390210
vt 0.953536 0.462751
vt 0.917266 0.499021
vt 0.872807 0.542521
vt 0.872807 0.687603
vt 0.800266 0.615062
vt 0.836537 0.578791
vt 0.880953 0.840251
vt 0.880953 0.695169
vt 0.953493 0.767710
vt 0.917223 0.803980
vt 0.622394 0.627760
vt 0.477312 0.627760
vt 0.513582 0.591490
vt 0.549853 0.555219
vt 0.229861 0.420773
vt 0.229861 0.472067
vt 0.118287 0.279669
vt 0.118287 0.330963
vt 0.063232 0.420773
vt 0.063232 0.472067
vt 0.125812 0.523361
vt 0.125812 0.472067
vt 0.181355 0.523361
vt 0.069781 0.382257
vt 0.069781 0.330963
vt 0.014725 0.523361
vt 0.174318 0.382257
vt 0.181355 0.330963
vt 0.181355 0.279669
vt 0.063232 0.279669
vt 0.063232 0.330963
vt 0.229861 0.279669
vt 0.229861 0.330963
vt 0.239705 0.056104
vt 0.239705 0.201186
vt 0.392089 0.421504
vt 0.392089 0.524093
vt 0.236025 0.382254
vt 0.236025 0.279666
vt 0.181355 0.382257
vt 0.392933 0.279697
vt 0.392933 0.382286
vt 0.235272 0.523356
vt 0.235272 0.420768
vt 0.069781 0.279669
vt 0.174318 0.420773
vt 0.162470 0.056104
vt 0.162470 0.201186
vt 0.084879 0.056104
vt 0.084879 0.201186
vt 0.125812 0.382257
vt 0.125812 0.330963
vt 0.118287 0.382257
vt 0.229861 0.382257
vt 0.063232 0.382257
vt 0.014725 0.330963
vt 0.014725 0.279669
vt 0.118287 0.472067
vt 0.118287 0.523361
vt 0.289504 0.524093
vt 0.289504 0.421504
vt 0.063232 0.523361
vt 0.069781 0.472067
vt 0.069781 0.420773
vt 0.316939 0.056104
vt 0.316939 0.201186
vt 0.169507 0.201186
vt 0.169507 0.056104
vt 0.118287 0.420773
vt 0.246742 0.201186
vt 0.246742 0.056104
vt 0.069781 0.523361
vt 0.125812 0.279669
vt 0.092272 0.201186
vt 0.092272 0.056104
vt 0.447084 0.279691
vt 0.447084 0.382279
vt 0.125812 0.420773
vt 0.014682 0.201186
vt 0.014682 0.056104
vt 0.398301 0.201186
vt 0.398301 0.056104
vt 0.397173 0.524093
vt 0.397173 0.421504
vt 0.229861 0.523361
vt 0.778494 0.056144
vt 0.778494 0.201225
vt 0.338010 0.421504
vt 0.338010 0.524093
vt 0.014726 0.382257
vt 0.472471 0.201186
vt 0.472471 0.056104
vt 0.398578 0.382279
vt 0.398578 0.279691
vt 0.521448 0.299229
vt 0.521448 0.326464
vt 0.494213 0.326464
vt 0.494213 0.299229
vt 0.521448 0.523888
vt 0.469105 0.523888
vt 0.494213 0.498780
vt 0.521448 0.498780
vt 0.718872 0.471545
vt 0.718872 0.523888
vt 0.693764 0.498780
vt 0.693764 0.471545
vt 0.666529 0.274121
vt 0.718872 0.274121
vt 0.693764 0.299229
vt 0.666529 0.299229
vt 0.469105 0.326464
vt 0.469105 0.274121
vt 0.718872 0.326464
vt 0.693764 0.326464
vt 0.521448 0.274121
vt 0.469105 0.471545
vt 0.494213 0.471545
vt 0.666529 0.523888
vt 0.666529 0.498780
vt 0.666529 0.326464
vt 0.666529 0.471545
vt 0.521448 0.471545
vt 0.792778 0.179389
vt 0.820013 0.179389
vt 0.820013 0.206624
vt 0.792778 0.206624
vt 0.792778 0.007073
vt 0.820013 0.007073
vt 0.820013 0.034308
vt 0.792778 0.034308
vt 0.965094 0.007073
vt 0.992329 0.007073
vt 0.992329 0.034308
vt 0.965094 0.034308
vt 0.965094 0.179389
vt 0.992329 0.179389
vt 0.992329 0.206624
vt 0.965094 0.206624
vt 0.466001 0.228420
vt 0.391677 0.028870
vt 0.466001 0.028870
s 0
usemtl Crate_Wood_01
f 26/1/1 68/2/1 292/3/1 294/4/1
f 70/5/2 1/6/2 24/7/2 91/8/2
f 72/9/3 4/10/3 14/11/3 82/12/3
f 50/13/4 3/14/4 25/15/4 66/16/4
f 7/17/5 73/18/5 85/19/5 17/20/5
f 74/21/5 8/22/5 18/23/5 86/24/5
f 30/25/4 7/26/4 26/27/4 45/28/4
f 5/29/2 75/30/2 89/31/2 21/32/2
f 76/33/2 6/34/2 22/35/2 90/36/2
f 54/37/4 5/38/4 27/39/4 67/40/4
f 3/41/3 71/42/3 81/43/3 13/44/3
f 34/45/4 1/46/4 28/47/4 47/48/4
f 5/49/4 33/50/4 48/51/4 27/52/4
f 7/53/4 53/54/4 68/2/4 26/1/4
f 6/55/2 36/56/2 44/57/2 22/58/2
f 4/59/3 32/60/3 40/61/3 14/62/3
f 1/46/2 34/45/2 42/63/2 24/64/2
f 7/26/3 30/25/3 38/65/3 16/66/3
f 33/50/2 5/49/2 21/67/2 41/68/2
f 35/69/2 2/70/2 23/71/2 43/72/2
f 29/73/3 3/74/3 13/75/3 37/76/3
f 31/77/3 8/78/3 15/79/3 39/80/3
f 1/81/4 49/82/4 65/83/4 28/84/4
f 55/85/5 56/86/5 276/87/5 275/88/5
f 46/89/2 45/28/2 287/90/2 288/91/2
f 45/28/2 26/27/2 294/92/2 287/90/2
f 4/93/1 51/94/1 277/95/1 255/96/1
f 8/97/5 56/98/5 64/99/5 18/100/5
f 2/101/1 52/102/1 60/103/1 10/104/1
f 3/14/1 50/13/1 58/105/1 12/106/1
f 5/38/5 54/37/5 62/107/5 20/108/5
f 53/54/5 7/53/5 17/109/5 61/110/5
f 55/111/5 6/112/5 19/113/5 63/114/5
f 49/82/1 1/81/1 9/115/1 57/116/1
f 51/117/1 4/118/1 11/119/1 59/120/1
f 36/121/2 6/122/2 259/123/2 266/124/2
f 48/51/3 47/48/3 285/125/3 286/126/3
f 2/127/2 69/128/2 92/129/2 23/130/2
f 1/6/1 70/5/1 77/131/1 9/132/1
f 6/34/5 76/33/5 88/133/5 19/134/5
f 75/30/5 5/29/5 20/135/5 87/136/5
f 8/22/3 74/21/3 84/137/3 15/138/3
f 73/18/3 7/17/3 16/139/3 83/140/3
f 4/10/1 72/9/1 80/141/1 11/142/1
f 71/42/1 3/41/1 12/143/1 79/144/1
f 69/128/1 2/127/1 10/145/1 78/146/1
f 51/94/1 52/147/1 278/148/1 277/95/1
f 68/2/1 67/40/1 291/149/1 292/3/1
f 8/150/3 31/151/3 269/152/3 254/153/3
f 31/151/3 32/154/3 270/155/3 269/152/3
f 34/45/4 47/48/4 48/51/4 33/50/4
f 30/25/4 45/28/4 46/89/4 29/73/4
f 33/50/2 41/68/2 42/63/2 34/45/2
f 35/69/2 43/72/2 44/57/2 36/56/2
f 29/73/3 37/76/3 38/65/3 30/25/3
f 31/77/3 39/80/3 40/61/3 32/60/3
f 35/156/2 36/121/2 266/124/2 265/157/2
f 66/16/5 25/15/5 293/158/5 290/159/5
f 15/138/1 84/137/1 140/160/1 163/161/1
f 62/107/6 61/110/6 132/162/6 133/163/6
f 56/86/5 8/164/5 254/165/5 276/87/5
f 25/166/2 46/89/2 288/91/2 293/167/2
f 28/84/5 65/83/5 289/168/5 296/169/5
f 32/154/3 4/93/3 255/96/3 270/155/3
f 2/170/2 35/156/2 265/157/2 257/171/2
f 6/122/5 55/85/5 275/88/5 259/123/5
f 50/13/4 66/16/4 65/83/4 49/82/4
f 54/37/4 67/40/4 68/2/4 53/54/4
f 53/54/5 61/110/5 62/107/5 54/37/5
f 55/111/5 63/114/5 64/99/5 56/98/5
f 49/82/1 57/116/1 58/105/1 50/13/1
f 51/117/1 59/120/1 60/103/1 52/102/1
f 52/147/1 2/170/1 257/171/1 278/148/1
f 65/83/5 66/16/5 290/159/5 289/168/5
f 83/140/1 16/139/1 160/172/1 139/173/1
f 42/63/6 41/68/6 103/174/6 105/175/6
f 61/110/6 17/109/6 130/176/6 132/162/6
f 13/44/5 81/43/5 152/177/5 161/178/5
f 81/43/5 82/12/5 153/179/5 152/177/5
f 39/80/4 15/79/4 163/180/4 129/181/4
f 20/108/6 62/107/6 133/163/6 170/182/6
f 70/5/2 91/8/2 92/129/2 69/128/2
f 76/33/2 90/36/2 89/31/2 75/30/2
f 75/30/5 87/136/5 88/133/5 76/33/5
f 74/21/5 86/24/5 85/19/5 73/18/5
f 73/18/3 83/140/3 84/137/3 74/21/3
f 72/9/3 82/12/3 81/43/3 71/42/3
f 71/42/1 79/144/1 80/141/1 72/9/1
f 69/128/1 78/146/1 77/131/1 70/5/1
f 86/24/2 18/23/2 171/183/2 151/184/2
f 3/74/4 29/73/4 46/89/4 25/166/4
f 85/19/2 86/24/2 151/184/2 144/185/2
f 14/62/4 40/61/4 125/186/4 162/187/4
f 88/133/3 87/136/3 155/188/3 156/189/3
f 43/72/4 23/71/4 102/190/4 112/191/4
f 19/134/3 88/133/3 156/189/3 143/192/3
f 60/103/4 59/120/4 137/193/4 138/194/4
f 22/58/4 44/57/4 97/195/4 165/196/4
f 80/141/2 79/144/2 157/197/2 158/198/2
f 87/136/3 20/135/3 170/199/3 155/188/3
f 40/61/4 39/80/4 129/181/4 125/186/4
f 59/120/4 11/119/4 169/200/4 137/193/4
f 17/20/2 85/19/2 144/185/2 130/201/2
f 77/131/3 78/146/3 148/202/3 147/203/3
f 10/104/4 60/103/4 138/194/4 168/204/4
f 78/146/3 10/145/3 168/205/3 148/202/3
f 58/105/6 57/116/6 135/206/6 136/207/6
f 11/142/2 80/141/2 158/198/2 169/208/2
f 90/36/1 22/35/1 165/209/1 106/210/1
f 37/76/6 13/75/6 161/211/6 127/212/6
f 38/65/6 37/76/6 127/212/6 128/213/6
f 79/144/2 12/143/2 166/214/2 157/197/2
f 23/130/5 92/129/5 113/215/5 102/216/5
f 16/66/6 38/65/6 128/213/6 160/217/6
f 92/129/5 91/8/5 110/218/5 113/215/5
f 57/116/6 9/115/6 167/219/6 135/206/6
f 41/68/6 21/67/6 114/220/6 103/174/6
f 9/132/3 77/131/3 147/203/3 167/221/3
f 91/8/5 24/7/5 164/222/5 110/218/5
f 12/106/6 58/105/6 136/207/6 166/223/6
f 64/99/4 63/114/4 117/224/4 134/225/4
f 24/64/6 42/63/6 105/175/6 164/226/6
f 84/137/1 83/140/1 139/173/1 140/160/1
f 63/114/4 19/113/4 143/227/4 117/224/4
f 21/32/1 89/31/1 108/228/1 114/229/1
f 44/57/4 43/72/4 112/191/4 97/195/4
f 18/100/4 64/99/4 134/225/4 171/230/4
f 82/12/5 14/11/5 162/231/5 153/179/5
f 89/31/1 90/36/1 106/210/1 108/228/1
f 138/232/1 178/233/1 185/234/1 148/235/1 168/236/1
f 125/237/3 126/238/3 150/239/3 153/240/3 162/241/3
f 144/242/5 145/243/5 131/244/5 130/245/5
f 109/246/2 93/247/2 94/248/2 107/249/2
f 141/250/3 122/251/3 121/252/3 146/253/3
f 104/254/2 101/255/2 102/256/2 113/257/2
f 181/258/1 184/259/1 183/260/1 182/261/1
f 131/244/5 120/262/5 123/263/5 149/264/5
f 176/265/3 159/266/3 187/267/3 177/268/3
f 107/249/2 94/248/2 96/269/2 95/270/2
f 97/271/2 98/272/2 93/273/2 106/274/2 165/275/2
f 134/276/5 115/277/5 119/278/5 151/279/5 171/280/5
f 187/267/3 159/266/3 121/252/3 122/251/3
f 188/281/3 150/282/3 159/266/3 176/265/3
f 116/283/5 115/284/5 118/285/5 142/286/5
f 174/287/1 180/288/1 179/289/1 173/290/1
f 108/291/2 109/246/2 107/249/2 114/292/2
f 121/252/3 126/293/3 175/294/3 146/253/3
f 146/253/3 175/294/3 129/295/3 163/296/3
f 105/297/2 96/298/2 100/299/2 110/300/2 164/301/2
f 139/302/7 122/303/7 220/304/7 219/305/7
f 112/306/7 111/307/7 202/308/7 203/309/7
f 154/310/5 124/311/5 116/283/5 142/286/5
f 140/312/3 141/250/3 146/253/3 163/296/3
f 119/313/8 145/243/8 224/314/8 251/315/8
f 133/316/5 123/317/5 124/318/5 155/319/5 170/320/5
f 138/194/4 137/193/4 217/321/4 218/322/4
f 185/323/9 186/324/9 244/325/9 245/326/9
f 99/327/2 98/328/2 111/307/2 101/255/2
f 101/255/2 111/307/2 112/306/2 102/256/2
f 96/269/2 94/248/2 99/327/2 100/329/2
f 94/248/2 93/247/2 98/328/2 99/327/2
f 115/277/9 134/276/9 214/330/9 237/331/9
f 100/329/2 99/327/2 101/255/2 104/254/2
f 114/292/2 107/249/2 95/270/2 103/332/2
f 136/207/6 135/206/6 215/333/6 216/334/6
f 136/335/1 183/336/1 180/337/1 157/338/1 166/339/1
f 173/290/1 172/340/1 137/341/1 169/342/1
f 130/245/5 131/244/5 149/264/5 132/343/5
f 155/319/9 124/318/9 231/344/9 233/345/9
f 128/346/3 187/347/3 122/303/3 139/302/3 160/348/3
f 134/225/4 117/224/4 205/349/4 214/350/4
f 123/263/5 120/262/5 116/283/5 124/311/5
f 178/233/8 138/232/8 218/351/8 241/352/8
f 133/163/6 132/162/6 212/353/6 213/354/6
f 184/259/1 185/323/1 178/355/1 179/289/1
f 183/260/1 184/259/1 179/289/1 180/288/1
f 158/356/1 174/287/1 173/290/1 169/342/1
f 179/289/1 178/355/1 172/340/1 173/290/1
f 159/266/3 150/282/3 126/293/3 121/252/3
f 120/262/5 119/313/5 115/284/5 116/283/5
f 145/243/5 119/313/5 120/262/5 131/244/5
f 157/338/8 180/337/8 242/357/8 235/358/8
f 147/359/1 186/324/1 181/258/1 167/360/1
f 167/360/1 181/258/1 182/261/1 135/361/1
f 186/324/1 185/323/1 184/259/1 181/258/1
f 110/300/10 100/299/10 194/362/10 201/363/10
f 152/364/3 188/281/3 176/265/3 161/365/3
f 161/365/3 176/265/3 177/268/3 127/366/3
f 142/286/5 118/285/5 117/367/5 143/368/5
f 109/246/7 108/291/7 199/369/7 200/370/7
f 187/347/11 128/346/11 210/371/11 250/372/11
f 125/186/4 129/181/4 211/373/4 207/374/4
f 156/375/5 154/310/5 142/286/5 143/368/5
f 210/376/3 209/377/3 247/378/3 250/379/3
f 234/380/5 233/381/5 231/382/5 230/383/5
f 196/384/2 193/385/2 189/386/2 190/387/2
f 204/388/2 201/389/2 194/390/2 195/391/2
f 191/392/2 203/393/2 202/394/2 192/395/2
f 199/396/2 198/397/2 197/398/2 200/399/2
f 215/400/1 243/401/1 246/402/1 216/403/1
f 214/404/5 205/405/5 206/406/5 237/407/5
f 225/408/1 226/409/1 245/410/1 244/411/1
f 236/412/1 235/413/1 242/414/1 240/415/1
f 207/416/3 211/417/3 238/418/3 208/419/3
f 218/420/1 217/421/1 239/422/1 241/423/1
f 228/424/3 229/425/3 249/426/3 248/427/3
f 221/428/3 219/429/3 220/430/3 222/431/3
f 223/432/5 227/433/5 251/434/5 224/435/5
f 213/436/5 212/437/5 232/438/5 252/439/5
f 182/261/12 183/260/12 246/440/12 243/441/12
f 141/250/13 140/312/13 221/442/13 222/443/13
f 149/264/14 123/263/14 252/444/14 232/445/14
f 104/254/11 113/257/11 204/446/11 195/447/11
f 186/324/9 147/359/9 225/448/9 244/325/9
f 175/294/10 126/293/10 208/449/10 238/450/10
f 145/243/8 144/242/8 223/451/8 224/314/8
f 93/247/7 109/246/7 200/370/7 197/452/7
f 137/341/9 172/340/9 239/453/9 217/454/9
f 154/310/14 156/375/14 234/455/14 230/456/14
f 174/287/12 158/356/12 236/457/12 240/458/12
f 147/203/3 148/202/3 226/459/3 225/460/3
f 151/279/12 119/278/12 251/461/12 227/462/12
f 148/235/14 185/234/14 245/463/14 226/464/14
f 172/340/9 178/355/9 241/465/9 239/453/9
f 123/317/12 133/316/12 213/466/12 252/467/12
f 183/336/14 136/335/14 216/468/14 246/469/14
f 129/295/10 175/294/10 238/450/10 211/470/10
f 111/307/7 98/328/7 192/471/7 202/308/7
f 144/185/2 151/184/2 227/472/2 223/473/2
f 152/177/5 153/179/5 229/474/5 228/475/5
f 95/270/11 96/269/11 190/476/11 189/477/11
f 122/251/13 141/250/13 222/443/13 220/478/13
f 180/288/12 174/287/12 240/458/12 242/479/12
f 124/311/14 154/310/14 230/456/14 231/480/14
f 117/367/8 118/285/8 206/481/8 205/482/8
f 127/366/13 177/268/13 247/483/13 209/484/13
f 98/272/10 97/271/10 191/485/10 192/486/10
f 132/343/14 149/264/14 232/445/14 212/487/14
f 150/282/10 188/281/10 248/488/10 249/489/10
f 108/228/1 106/210/1 198/490/1 199/491/1
f 113/215/5 110/218/5 201/492/5 204/493/5
f 177/268/13 187/267/13 250/494/13 247/483/13
f 156/189/3 155/188/3 233/495/3 234/496/3
f 188/281/10 152/364/10 228/497/10 248/488/10
f 103/332/11 95/270/11 189/477/11 193/498/11
f 140/160/1 139/173/1 219/499/1 221/500/1
f 126/238/7 125/237/7 207/501/7 208/502/7
f 100/329/11 104/254/11 195/447/11 194/503/11
f 158/198/2 157/197/2 235/504/2 236/505/2
f 105/175/6 103/174/6 193/506/6 196/507/6
f 96/298/13 105/297/13 196/508/13 190/509/13
f 135/361/12 182/261/12 243/441/12 215/510/12
f 97/195/4 112/191/4 203/511/4 191/512/4
f 106/274/13 93/273/13 197/513/13 198/514/13
f 118/285/8 115/284/8 237/515/8 206/481/8
f 128/213/6 127/212/6 209/516/6 210/517/6
f 153/240/11 150/239/11 249/518/11 229/519/11
f 273/520/6 263/521/6 267/522/6 260/523/6
f 278/524/6 257/525/6 258/526/6 279/527/6
f 270/528/6 255/529/6 256/530/6 271/531/6
f 276/532/6 254/533/6 253/534/6 274/535/6
f 266/536/6 259/537/6 260/523/6 267/522/6
f 254/533/6 269/538/6 272/539/6 253/534/6
f 259/537/6 275/540/6 273/520/6 260/523/6
f 257/525/6 265/541/6 268/542/6 258/526/6
f 255/529/6 277/543/6 280/544/6 256/530/6
f 253/534/6 272/539/6 264/545/6 274/535/6
f 271/531/6 256/530/6 280/544/6 261/546/6
f 262/547/6 279/527/6 258/526/6 268/542/6
f 262/547/6 263/521/6 264/545/6 261/546/6
f 266/536/6 267/522/6 268/542/6 265/541/6
f 270/528/6 271/531/6 272/539/6 269/538/6
f 262/547/6 268/542/6 267/522/6 263/521/6
f 271/531/6 261/546/6 264/545/6 272/539/6
f 263/521/6 273/520/6 274/535/6 264/545/6
f 276/532/6 274/535/6 273/520/6 275/540/6
f 278/524/6 279/527/6 280/544/6 277/543/6
f 279/527/6 262/547/6 261/546/6 280/544/6
f 289/548/4 283/549/4 285/550/4 296/551/4
f 293/552/4 288/553/4 284/554/4 290/555/4
f 287/556/4 294/557/4 292/558/4 281/559/4
f 282/560/4 291/561/4 295/562/4 286/563/4
f 282/560/4 283/549/4 284/554/4 281/559/4
f 282/560/4 286/563/4 285/550/4 283/549/4
f 287/556/4 281/559/4 284/554/4 288/553/4
f 283/549/4 289/548/4 290/555/4 284/554/4
f 291/561/4 282/560/4 281/559/4 292/558/4
f 27/52/3 48/51/3 286/126/3 295/564/3
f 67/40/1 27/39/1 295/565/1 291/149/1
f 47/48/3 28/47/3 296/566/3 285/125/3
